<?xml version="1.0" ?><!DOCTYPE svg  PUBLIC '-//W3C//DTD SVG 1.1//EN'  'http://www.w3.org/Graphics/SVG/1.1/DTD/svg11.dtd'><svg enable-background="new 0 0 100 100" id="Layer_1" version="1.1" viewBox="0 0 100 100" xml:space="preserve" xmlns="http://www.w3.org/2000/svg" xmlns:xlink="http://www.w3.org/1999/xlink"><g><path d="M72.349,24.359c-4.46,0-8.211,7.023-9.366,16.594l8.291,2.583c0.766,0.239,1.317,1.844,1.317,3.613   s-0.551,3.375-1.317,3.613l-8.29,2.583c1.155,9.571,4.906,16.594,9.366,16.594c5.379,0,9.74-10.203,9.74-22.79   S77.728,24.359,72.349,24.359z" fill="#656565"/><g><g><polygon fill="#656565" points="45.344,75.641 39.09,51.607 26.926,56.736 36.709,75.641    "/></g></g><path d="M62.579,27.025c-4.59,3.219-10.34,6.624-15.894,9.7l-23.136,0c-1.661,0-3.151,1.312-4.189,3.389h5.717   v2.793H18.36c-0.229,0.949-0.385,1.971-0.448,3.044h7.167v2.793h-7.122c0.436,4.928,2.771,8.695,5.594,8.695l22.893,0   c5.629,3.111,11.479,6.567,16.137,9.834c-2.731-4.408-4.524-11.773-4.524-20.123C58.055,38.798,59.848,31.434,62.579,27.025z" fill="#656565"/></g></svg>