<?xml version="1.0" ?><!DOCTYPE svg  PUBLIC '-//W3C//DTD SVG 1.1//EN'  'http://www.w3.org/Graphics/SVG/1.1/DTD/svg11.dtd'><svg enable-background="new 0 0 100 100" id="Layer_1" version="1.1" viewBox="0 0 100 100" xml:space="preserve" xmlns="http://www.w3.org/2000/svg" xmlns:xlink="http://www.w3.org/1999/xlink"><g><path d="M58.032,42.555c-1.156-0.291-9.046-0.939-11.29,0c-2.204,0.921-5.025,0.921-7.229,0   c-2.245-0.938-10.134-0.291-11.291,0c-1.156,0.291-0.999,2.549-0.455,2.937c0.544,0.388,1.02,3.591,2.279,5.241   c1.258,1.65,5.216,1.781,7.426,1.522c2.211-0.259,3.963-3.625,4.303-4.434c0.34-0.809,0.297-1.683,1.011-1.683h0.571   c0.714,0,0.782,0.874,1.122,1.683c0.34,0.809,2.092,4.174,4.303,4.434c2.21,0.259,6.157,0.128,7.416-1.522   c1.258-1.65,1.734-4.853,2.278-5.241C59.02,45.104,59.188,42.846,58.032,42.555z" fill="#656565"/><path d="M75.31,32.51c-3.752-2.631-10.956-2.547-15.849-1.689c0.329,1.504,0.545,2.53,0.596,3.82   c-0.534,0.22-1.24,0.105-1.434-0.48c-0.31-0.932-1.9-11.191-2.245-12.215c-0.345-1.024-1.94-2.477-3.58-2.476   c-1.64,0.001-19.085,2.382-26.879,4.456c-1.986,0.812-2.555,2.986-2.347,4.745c0.207,1.759,1.88,15.466,1.92,15.481   c0.043,0.637,0.656,1.22,1.438,0.837c9.351-4.59,40.587-5.56,49.294-10.237C76.922,34.376,75.977,32.978,75.31,32.51z" fill="#656565"/><path d="M60.636,55.778c-0.108-0.516-0.736-0.859-1.23-0.698c-0.489,0.16-1.932,0.99-3.697,0.99   s-9.543-4.152-12.498-4.152c-2.939,0-7.608,3.884-14.15,3.801c-0.797,1.379-1.842,8.129,4.146,10.786   c0.435,0.584,0.897,1.143,1.379,1.683c-1.075-0.234-3.008-1.202-3.823-1.671c-0.815-0.469-1.306,0.079-1.013,1.19   c1,3.8,10.131,10.915,12.969,12.765c1.017,0.663,7.29-4.387,9.721-6.29c1.245-0.975,4.225-4.424,4.19-5.908   c-0.022-0.935-0.592-1.24-1.254-0.707c-0.07,0.052-1.217,0.786-1.477,0.97c0.177-0.335,0.347-0.956,0.511-1.296   c2.262-1.517,4.163-3.472,5.017-6.118C59.504,60.885,60.976,57.407,60.636,55.778z" fill="#656565"/></g></svg>