<?xml version="1.0" encoding="UTF-8" standalone="no"?>
<!-- Created with Inkscape (http://www.inkscape.org/) -->

<svg
   xmlns:dc="http://purl.org/dc/elements/1.1/"
   xmlns:cc="http://creativecommons.org/ns#"
   xmlns:rdf="http://www.w3.org/1999/02/22-rdf-syntax-ns#"
   xmlns:svg="http://www.w3.org/2000/svg"
   xmlns="http://www.w3.org/2000/svg"
   xmlns:sodipodi="http://sodipodi.sourceforge.net/DTD/sodipodi-0.dtd"
   xmlns:inkscape="http://www.inkscape.org/namespaces/inkscape"
   id="svg9820"
   version="1.1"
   inkscape:version="0.91 r13725"
   width="100"
   height="100"
   sodipodi:docname="fist-icon.svg">
  <metadata
     id="metadata9826">
    <rdf:RDF>
      <cc:Work
         rdf:about="">
        <dc:format>image/svg+xml</dc:format>
        <dc:type
           rdf:resource="http://purl.org/dc/dcmitype/StillImage" />
        <dc:title></dc:title>
      </cc:Work>
    </rdf:RDF>
  </metadata>
  <defs
     id="defs9824" />
  <sodipodi:namedview
     pagecolor="#ffffff"
     bordercolor="#666666"
     borderopacity="1"
     objecttolerance="10"
     gridtolerance="10"
     guidetolerance="10"
     inkscape:pageopacity="0"
     inkscape:pageshadow="2"
     inkscape:window-width="1600"
     inkscape:window-height="834"
     id="namedview9822"
     showgrid="false"
     inkscape:zoom="1.5113746"
     inkscape:cx="244.33674"
     inkscape:cy="108.31616"
     inkscape:window-x="0"
     inkscape:window-y="27"
     inkscape:window-maximized="1"
     inkscape:current-layer="svg9820" />
  <path
     style="fill:#c70000;fill-opacity:1"
     d="M 30.711499,86.098999 8.9850501,50.615865 30.711499,14.55923 l 41.021308,0 20.465942,36.056635 -20.465942,35.483134 -7.83882,0 c 0,0 -3.081298,-18.435649 -3.081889,-20.350932 -2.86e-4,-0.917355 1.696515,-3.901689 6.139074,-10.79742 3.376709,-5.241316 6.139472,-9.890254 6.139472,-10.330971 0,-1.059668 -9.222773,-14.398623 -9.955447,-14.398623 -0.80095,0 -12.840481,5.412864 -13.53272,6.084199 -0.701388,0.68019 -0.291016,3.713782 0.602721,4.455514 0.742145,0.615919 6.01778,1.63802 6.893073,1.335461 0.354031,-0.122377 1.275056,-0.810132 2.046715,-1.528341 l 1.403015,-1.305836 -0.08087,1.261535 c -0.130746,2.038612 -0.04653,2.257282 1.101162,2.858613 1.092788,0.572565 1.092566,0.572797 -1.392575,1.478928 -1.36704,0.498449 -2.884148,1.334868 -3.371345,1.858712 -1.470748,1.58138 -8.944385,13.496683 -8.944385,14.260122 0,0.390979 0.690337,1.137527 1.534085,1.65899 1.490485,0.921169 1.506806,0.958216 0.574186,1.303217 l -0.959909,0.355092 0.197427,10.965296 c 0.160241,8.899361 -0.376086,10.836444 -0.376086,10.836444 l -1.970997,0 c 0,0 -0.0517,-5.12219 0.120056,-10.672944 0.337645,-10.909898 0.411332,-10.446407 -1.875958,-11.800349 -0.680386,-0.402749 -0.293583,-1.155516 3.945005,-7.677462 2.584648,-3.97701 4.699354,-7.418755 4.699354,-7.648317 0,-0.582691 -0.448027,-0.535631 -4.325041,0.454254 -4.050993,1.034311 -4.343468,1.179274 -7.698012,3.815512 -1.428439,1.122569 -2.855687,2.036824 -3.171657,2.031681 -0.31596,-0.0052 -1.047553,-0.379394 -1.625755,-0.831671 -1.620068,-1.267232 -2.102556,-1.064042 -2.102556,0.885455 0,3.366099 1.205016,6.729179 3.449564,9.627337 l 2.116875,2.733326 -0.263045,5.04614 C 39.466138,84.749884 38.351609,86.098999 38.351609,86.098999 Z M 40.98332,51.849248 c 1.00676,-0.824969 1.830484,-1.781629 1.830484,-2.125906 0,-0.843811 -7.636039,-10.2476 -8.322786,-10.249518 -0.697039,-0.0021 -4.176671,2.554995 -4.482107,3.293586 -0.127765,0.30898 -0.0901,0.806971 0.08373,1.106652 0.755079,1.301732 8.165517,9.475129 8.590668,9.475129 0.258235,0 1.293234,-0.674975 2.300002,-1.499943 z M 47.398502,47.9032 c 1.351993,-0.682483 2.555024,-1.4933 2.673419,-1.801817 0.285256,-0.743373 -7.959246,-12.936753 -8.747134,-12.936753 -0.957813,0 -5.659687,3.837944 -5.659687,4.619767 0,1.068247 8.077595,11.359678 8.916044,11.359678 0.197556,0 1.465375,-0.558394 2.817358,-1.240875 z m 8.044629,-2.761071 c 1.148723,-0.582099 2.088581,-1.136883 2.088581,-1.232853 0,-0.09596 -1.466538,-0.487457 -3.25897,-0.869976 -1.792431,-0.382514 -3.590115,-0.786634 -3.994855,-0.89804 -1.046261,-0.287988 -0.922244,0.646188 0.330537,2.489829 1.267856,1.865814 2.00701,1.943945 4.834707,0.51104 z m -7.233108,-7.241082 -0.139822,-1.991766 2.207686,-1.188757 c 1.214221,-0.65382 2.207686,-1.395103 2.207686,-1.6473 0,-0.664724 -2.803492,-5.57651 -3.524377,-6.17479 -0.491618,-0.408013 -1.179233,-0.221529 -3.508757,0.951602 -1.593518,0.802483 -3.119323,1.726575 -3.390676,2.053535 -0.394779,0.475683 0.104797,1.533144 2.500004,5.291858 1.646351,2.583565 3.172174,4.697389 3.390722,4.697389 0.218549,0 0.334433,-0.896296 0.257534,-1.991771 z m 9.501095,-6.574372 c 1.68733,-0.779591 3.194948,-1.623045 3.35026,-1.874343 0.35645,-0.576756 -2.932245,-7.179509 -3.728071,-7.484902 -0.647448,-0.24845 -6.010257,2.532104 -6.83136,3.541979 -0.41616,0.511834 -0.226386,1.148585 1.015234,3.406468 1.79556,3.265219 2.196986,3.828242 2.729491,3.828242 0.218115,0 1.777126,-0.637849 3.464446,-1.417444 z"
     id="path9830"
     inkscape:connector-curvature="0"
     sodipodi:nodetypes="cccccccsssssssscssssssscsccsssssscssscsccsscssssssssssssssssscsssssssssssssss" />
</svg>
