<?xml version="1.0" encoding="UTF-8" standalone="no"?>
<svg
   xmlns:dc="http://purl.org/dc/elements/1.1/"
   xmlns:cc="http://creativecommons.org/ns#"
   xmlns:rdf="http://www.w3.org/1999/02/22-rdf-syntax-ns#"
   xmlns:svg="http://www.w3.org/2000/svg"
   xmlns="http://www.w3.org/2000/svg"
   xmlns:sodipodi="http://sodipodi.sourceforge.net/DTD/sodipodi-0.dtd"
   xmlns:inkscape="http://www.inkscape.org/namespaces/inkscape"
   enable-background="new 0 0 100 100"
   id="Layer_1"
   version="1.1"
   viewBox="0 0 100 100"
   xml:space="preserve"
   inkscape:version="0.48.5 r10040"
   width="100%"
   height="100%"
   sodipodi:docname="1408312223_15.svg"><metadata
     id="metadata13"><rdf:RDF><cc:Work
         rdf:about=""><dc:format>image/svg+xml</dc:format><dc:type
           rdf:resource="http://purl.org/dc/dcmitype/StillImage" /><dc:title></dc:title></cc:Work></rdf:RDF></metadata><defs
     id="defs11" /><sodipodi:namedview
     pagecolor="#ffffff"
     bordercolor="#666666"
     borderopacity="1"
     objecttolerance="10"
     gridtolerance="10"
     guidetolerance="10"
     inkscape:pageopacity="0"
     inkscape:pageshadow="2"
     inkscape:window-width="640"
     inkscape:window-height="480"
     id="namedview9"
     showgrid="false"
     inkscape:zoom="2.36"
     inkscape:cx="50"
     inkscape:cy="50"
     inkscape:window-x="0"
     inkscape:window-y="27"
     inkscape:window-maximized="0"
     inkscape:current-layer="Layer_1" /><g
     id="g3"><path
       d="M61.399,34.422c-2.324-2.324-4.494-3.92-4.848-3.567l-0.535,0.535c-0.631,0.036-1.325,0.325-1.902,0.901   c-0.577,0.576-0.865,1.271-0.901,1.902l-5.49,5.49c-1.942,1.942-4.084,1.032-6.909,0.724c-4.011-0.437-6.158,0.853-10.038,4.733   L16.081,59.834c-1.104,1.103-2.343,4.063,6.749,13.155c9.092,9.092,12.051,7.852,13.155,6.749l14.694-14.694   c3.88-3.88,5.17-6.027,4.733-10.038c-0.308-2.825-1.218-4.967,0.725-6.909l5.491-5.491c0.631-0.036,1.325-0.325,1.901-0.901   c0.576-0.576,0.865-1.271,0.901-1.901l0.536-0.536C65.319,38.916,63.722,36.745,61.399,34.422z M38.892,71.007   c-1.619-0.758-4.622-3.16-7.77-6.309c-2.24-2.24-4.088-4.396-5.249-6.042c-1.352,1.351-2.572,2.57-3.459,3.457l-1.741,1.74   c-0.254,0.253-0.587,0.38-0.919,0.38c-0.333,0-0.666-0.127-0.92-0.381c-0.507-0.509-0.507-1.331,0.001-1.839l1.741-1.739   c7.32-7.317,14.832-14.823,15.029-15.013c1.763-1.676,3.786-1.805,5.929-1.94c0.794-0.051,1.657-0.104,2.605-0.24   c0.714-0.094,1.371,0.393,1.472,1.103c0.102,0.711-0.393,1.37-1.103,1.472c-1.023,0.147-1.954,0.206-2.81,0.261   c-2.118,0.135-3.271,0.25-4.3,1.229c-0.086,0.084-1.039,1.034-2.426,2.419c1.162,1.646,3.008,3.8,5.246,6.037   c3.149,3.149,6.152,5.551,7.77,6.309L38.892,71.007z M57.669,36.015l-7.025,7.026c-0.254,0.254-0.586,0.381-0.919,0.381   s-0.665-0.127-0.919-0.381c-0.508-0.507-0.508-1.33,0-1.838l7.025-7.026c0.508-0.508,1.33-0.508,1.838,0   C58.177,34.684,58.177,35.508,57.669,36.015z"
       fill="#656565"
       id="path5" /><path
       d="M81.799,51.181c0.097-0.546,0.317-1.375,0.589-2.413c1.789-6.824,5.513-21.024-3.566-26.948   c-4.163-2.714-9.03-3.064-13.348-0.959c-4.511,2.198-7.706,6.675-8.645,11.904l5.377,7.807c1.495-0.734,3.534-1.725,5.694-0.856   c0.053,1.665-0.848,10.478-4.355,16.669l-1.003,1.772l1.99,0.433c1.289,0.28,2.816,0.493,4.279,0.644   c-0.278,1.739-0.468,4.892-0.506,5.588l-0.096,1.694l1.694,0.099c0.158,0.009,2.396,0.136,5.098,0.136   c1.952,0,4.147-0.066,5.972-0.291l1.455-0.18l0.036-1.466c0.046-1.85-0.186-3.974-0.412-6.028   C81.752,56.046,81.442,53.213,81.799,51.181z M79.099,47.907c-0.303,1.154-0.542,2.078-0.649,2.686   c-0.44,2.509-0.104,5.587,0.222,8.562c0.157,1.436,0.309,2.815,0.37,4.073c-2.512,0.176-5.428,0.126-7.229,0.066   c0.111-1.509,0.265-3.142,0.411-3.813c0.351,0.013,0.679,0.021,0.956,0.021c0.067,0,0.133,0,0.194-0.001l-0.035-3   c-1.296,0.018-3.892-0.153-6.228-0.497c2.272-4.878,3.28-10.567,3.631-13.927c1.47,1.955,2.427,4.596,2.438,4.624l2.45-0.869   c-0.048-0.133-1.181-3.298-3.03-5.615c-3.135-3.927-6.586-3.784-9.084-3c-0.244-0.274-0.545-0.591-0.892-0.943   c0.366-0.568,0.836-1.204,1.41-1.855c1.159-0.943,5.616-0.799,7.839,0.566l1.361-2.215c-1.36-0.836-3.393-1.358-5.393-1.49   c0.967-0.544,2.003-0.977,3.106-1.159l-0.426-2.565c-5.583,0.742-8.508,3.926-9.997,6.682c-0.143-0.134-0.283-0.266-0.423-0.395   c0.635-4.376,3.196-8.135,6.865-9.923c3.268-1.591,6.818-1.325,10.001,0.75C83.989,29.252,80.686,41.851,79.099,47.907z"
       fill="#656565"
       id="path7" /></g></svg>