<?xml version="1.0" ?><!DOCTYPE svg  PUBLIC '-//W3C//DTD SVG 1.1//EN'  'http://www.w3.org/Graphics/SVG/1.1/DTD/svg11.dtd'><svg enable-background="new 0 0 100 100" id="Layer_1" version="1.1" viewBox="0 0 100 100" xml:space="preserve" xmlns="http://www.w3.org/2000/svg" xmlns:xlink="http://www.w3.org/1999/xlink"><g><path d="M66.662,62.372c-3.665-1.434-7.124-2.279-8.495-3.028c-0.908-0.51-2.327-1.498-2.327-3.57   c0-0.972,0-3.793,0-3.793l-0.048-0.239c0.526-0.414,0.972-0.828,1.275-1.211c0.797-0.94,1.546-2.644,2.04-5.194   c0.207-0.223,0.367-0.573,0.446-1.004L60,41.448c0.159-0.94-0.781-2.168-0.813-2.183c0,0,0.271-5.029,0.287-5.634   c0.016-0.606-0.749-2.646-1.036-3.251c-0.287-0.606-1.928-2.072-2.374-2.438c-0.446-0.367-3.347-1.498-3.666-1.785   c-0.303-0.302-6.837,0.431-7.029,0.574c-0.43,0.303-2.04,1.371-2.39,1.929c-0.335,0.542-1.259,1.514-1.546,2.358   c-0.287,0.861-0.399,6.368-0.399,7.021c0,0.653,0.334,1.195,0.334,1.195c-0.064,0.016-1.052,1.275-0.908,2.215l0.462,2.885   c0.096,0.605,0.366,1.036,0.701,1.211c0.494,2.502,1.227,4.078,1.992,4.987c0.223,0.271,0.51,0.558,0.845,0.844l0.064,0.446   c0,0,0,2.98,0,3.952c0,2.072-1.403,3.06-2.311,3.57c-1.371,0.749-4.829,1.594-8.495,3.028c-0.924,0.351-4.847,3.097-4.893,4.384   c11.448,10.802,34.153,8.165,42.68,0.142C70.422,65.688,67.714,62.771,66.662,62.372z" fill="#656565"/><path d="M37.665,52.496c-2.563-1.003-4.98-1.593-5.939-2.117c-0.635-0.356-1.627-1.047-1.627-2.496   c0-0.68,0-2.652,0-2.652l-0.034-0.167c0.368-0.29,0.68-0.579,0.892-0.847c0.557-0.657,1.081-1.848,1.426-3.631   c0.145-0.156,0.256-0.401,0.312-0.702l0.312-2.017c0.111-0.657-0.546-1.515-0.568-1.526c0,0,0.189-3.516,0.201-3.939   c0.011-0.423-0.524-1.85-0.724-2.273c-0.201-0.423-1.348-1.448-1.66-1.705c-0.312-0.256-2.34-1.047-2.563-1.248   c-0.212-0.212-4.78,0.301-4.914,0.401c-0.301,0.211-1.426,0.958-1.671,1.348c-0.234,0.379-0.88,1.058-1.081,1.649   c-0.201,0.602-0.279,4.452-0.279,4.909s0.234,0.836,0.234,0.836c-0.045,0.011-0.735,0.891-0.635,1.549l0.323,2.017   c0.067,0.423,0.256,0.724,0.49,0.847c0.345,1.749,0.858,2.851,1.393,3.486c0.156,0.189,0.357,0.39,0.591,0.59l0.045,0.312   c0,0,0,2.084,0,2.763c0,1.448-0.981,2.139-1.616,2.496c-0.958,0.524-3.376,1.114-5.939,2.117c-0.646,0.245-3.389,2.165-3.421,3.065   c8.004,7.552,23.877,5.708,29.839,0.099C40.294,54.814,38.401,52.775,37.665,52.496z" fill="#656565"/><path d="M85.399,52.316c-2.563-1.003-4.98-1.593-5.939-2.117c-0.635-0.356-1.627-1.047-1.627-2.496   c0-0.68,0-2.652,0-2.652L77.8,44.884c0.368-0.29,0.68-0.579,0.891-0.847c0.557-0.657,1.081-1.848,1.426-3.631   c0.145-0.156,0.256-0.401,0.312-0.702l0.312-2.017c0.112-0.657-0.546-1.515-0.568-1.526c0,0,0.189-3.516,0.201-3.939   c0.011-0.423-0.524-1.85-0.724-2.273c-0.201-0.423-1.348-1.448-1.66-1.705c-0.312-0.256-2.34-1.047-2.563-1.248   c-0.212-0.212-4.78,0.301-4.914,0.401c-0.301,0.211-1.426,0.958-1.671,1.348c-0.234,0.379-0.88,1.058-1.081,1.649   c-0.2,0.602-0.279,4.452-0.279,4.909s0.234,0.836,0.234,0.836c-0.044,0.011-0.735,0.891-0.635,1.549l0.323,2.017   c0.067,0.423,0.256,0.724,0.49,0.847c0.345,1.749,0.858,2.851,1.393,3.486c0.156,0.189,0.357,0.39,0.591,0.59l0.045,0.312   c0,0,0,2.084,0,2.763c0,1.448-0.981,2.139-1.616,2.496c-0.958,0.524-3.376,1.114-5.939,2.117c-0.646,0.245-3.389,2.165-3.421,3.065   c8.003,7.552,23.876,5.708,29.838,0.099C88.027,54.634,86.134,52.595,85.399,52.316z" fill="#656565"/></g></svg>